<svg xmlns="http://www.w3.org/2000/svg" version="1.1" xmlns:xlink="http://www.w3.org/1999/xlink" xmlns:svgjs="http://svgjs.dev/svgjs" width="1000" height="1125" viewBox="0 0 1000 1125"><g transform="matrix(1,0,0,1,0,0)"><svg viewBox="0 0 320 360" data-background-color="#ffffff" preserveAspectRatio="xMidYMid meet" height="1125" width="1000" xmlns="http://www.w3.org/2000/svg" xmlns:xlink="http://www.w3.org/1999/xlink"><g id="tight-bounds" transform="matrix(1,0,0,1,0,0)"><svg viewBox="0 0 320 360" height="360" width="320"><g><svg></svg></g><g><svg viewBox="0 0 320 360" height="360" width="320"><g><path xmlns="http://www.w3.org/2000/svg" d="M159.823 340.15v0c-7.794 0-14.524-4.96-16.65-12.399-1.063-3.897-5.314-6.022-8.856-4.96-1.417 0.354-2.834 1.417-3.897 2.834-5.668 7.794-16.296 9.919-24.444 4.251-4.96-3.188-7.794-8.856-7.439-14.878 0-3.897-3.188-7.439-7.085-7.44-1.771 0-3.188 0.354-4.605 1.417-7.794 5.668-18.775 4.251-24.444-3.542-3.543-4.605-4.605-10.628-2.479-16.296 1.417-3.897-0.709-7.794-4.606-9.21-1.417-0.354-3.188-0.354-4.605 0-9.211 3.188-19.13-1.771-22.318-10.982-1.771-5.314-1.063-11.69 2.48-16.296 2.48-3.188 1.771-7.794-1.417-9.919-1.417-1.063-2.834-1.417-4.605-1.417-9.565 0.354-17.713-7.439-17.713-17.004 0-6.022 2.834-11.336 7.439-14.879 3.188-2.126 3.897-6.731 1.771-9.919-1.063-1.417-2.126-2.126-3.896-2.834-9.211-2.834-14.524-12.753-11.691-21.963 1.771-5.668 6.022-9.919 11.691-11.691 3.897-1.063 6.022-5.314 4.959-8.856-0.354-1.417-1.417-2.834-2.834-3.897-7.794-5.668-9.919-16.296-4.251-24.443 3.188-4.96 8.856-7.794 14.879-7.44 3.897 0 7.439-3.188 7.439-7.085 0-1.771-0.354-3.188-1.417-4.605-5.668-7.794-4.251-18.775 3.543-24.443 4.605-3.543 10.628-4.605 16.295-2.48 3.897 1.417 7.794-0.709 9.211-4.605 0.354-1.417 0.354-3.188 0-4.606-3.188-9.211 1.771-19.13 10.982-22.318 5.314-1.771 11.69-1.063 16.295 2.48 3.188 2.48 7.794 1.771 9.919-1.417 1.063-1.417 1.417-2.834 1.417-4.605-0.354-9.565 7.439-17.713 17.005-17.713 6.022 0 11.336 2.834 14.878 7.439 2.126 3.188 6.731 3.897 9.919 1.772 1.417-1.063 2.126-2.126 2.834-3.897 2.834-9.211 12.753-14.524 21.964-11.69 5.668 1.771 9.919 6.022 11.69 11.69v0c0.709 2.48 2.834 4.605 5.668 4.96 2.834 0.354 5.314-0.709 7.085-2.835 5.668-7.794 16.296-9.919 24.444-4.251 4.96 3.188 7.794 8.856 7.439 14.879 0 3.897 3.188 7.439 7.085 7.439 1.771 0 3.188-0.354 4.605-1.417 7.794-5.668 18.775-4.251 24.444 3.543 3.543 4.605 4.605 10.628 2.48 16.296-1.417 3.897 0.709 7.794 4.605 9.21 1.417 0.354 3.188 0.354 4.605 0 9.211-3.188 19.13 1.771 22.318 10.982 1.771 5.314 1.063 11.69-2.48 16.296-2.48 3.188-1.771 7.794 1.417 9.919 1.417 1.063 2.834 1.417 4.606 1.417 9.565-0.354 17.713 7.439 17.712 17.004 0 6.022-2.834 11.336-7.439 14.878-2.48 1.417-3.543 4.251-3.188 7.085 0.354 2.834 2.48 4.96 4.959 5.669 9.211 2.834 14.524 12.753 11.691 21.963-1.771 5.668-6.022 9.919-11.691 11.691-3.897 1.063-6.022 5.314-4.959 8.856 0.354 1.417 1.417 2.834 2.834 3.897 7.794 5.668 9.919 16.296 4.251 24.443-3.188 4.96-8.856 7.794-14.879 7.439-2.834 0-5.314 1.417-6.731 3.897-1.417 2.48-1.063 5.314 0.709 7.794 5.668 7.794 4.251 18.775-3.543 24.443-4.605 3.543-10.628 4.605-16.295 2.48-3.897-1.417-7.794 0.709-9.211 4.605-0.354 1.417-0.354 3.188 0 4.606 3.188 9.211-1.771 19.13-10.982 22.317-5.314 1.771-11.69 1.063-16.295-2.479-3.188-2.48-7.794-1.771-9.919 1.417-1.063 1.417-1.417 2.834-1.417 4.605 0.354 9.565-7.439 17.713-17.005 17.713-6.022 0-11.336-2.834-14.878-7.44-1.417-2.126-4.251-3.543-7.085-2.834-2.834 0.354-4.96 2.48-5.668 4.96-2.126 7.439-8.856 12.399-16.65 12.399zM136.088 312.518c1.063 0 1.771 0 2.834 0.354 6.731 1.063 12.045 5.668 13.816 12.045 1.063 3.897 5.314 6.022 8.856 4.605 2.126-0.709 3.897-2.48 4.605-4.605 2.834-9.211 12.753-14.524 21.964-11.691 3.543 1.063 7.085 3.543 9.211 6.731 2.48 3.188 6.731 3.897 10.273 1.417 1.771-1.417 2.834-3.543 2.834-5.668-0.354-9.565 7.439-17.713 17.004-17.712 3.897 0 7.794 1.063 10.982 3.542 3.188 2.48 7.794 1.771 9.919-1.417 1.417-1.771 1.771-4.605 1.063-6.731-3.188-9.211 1.417-19.13 10.627-22.318 3.897-1.417 7.794-1.417 11.691 0 3.897 1.417 7.794-0.709 9.21-4.605 0.709-2.126 0.354-4.96-1.062-6.731-5.668-7.794-4.251-18.775 3.542-24.443 3.188-2.48 7.085-3.543 10.982-3.543 3.897 0 7.085-3.188 7.439-7.085 0-2.48-1.063-4.605-3.188-6.022-7.794-5.668-9.919-16.296-4.251-24.443 2.126-3.188 5.314-5.668 9.211-6.731 3.897-1.063 6.022-5.314 4.605-8.857-0.709-2.126-2.48-3.897-4.605-4.605-9.211-2.834-14.524-12.753-11.691-21.964 1.063-3.543 3.543-7.085 6.731-9.21 3.188-2.48 3.897-7.085 1.417-10.273-1.417-1.771-3.543-2.834-5.668-2.834-9.565 0.354-17.713-7.439-17.713-17.005 0-3.897 1.063-7.794 3.543-10.981 2.48-3.188 1.771-7.794-1.417-9.92-1.771-1.417-4.605-1.771-6.731-1.062-9.211 3.188-19.13-1.417-22.318-10.628-1.417-3.897-1.417-7.794 0-11.69 1.417-3.897-0.709-7.794-4.605-9.211-2.126-0.709-4.96-0.354-6.731 1.063-7.794 5.668-18.775 4.251-24.443-3.543-2.48-3.188-3.543-7.085-3.543-10.981 0-3.897-3.188-7.085-7.439-7.085-2.126 0-4.605 1.063-5.668 2.834-5.668 7.794-16.296 9.919-24.444 4.251-3.188-2.126-5.668-5.314-6.731-9.211v0c-1.063-3.897-5.314-6.022-8.856-4.605-2.126 0.709-3.897 2.48-4.605 4.605-2.834 9.211-12.753 14.524-21.964 11.69-3.543-1.063-7.085-3.543-9.21-6.73-2.48-3.188-6.731-3.897-10.274-1.417-1.771 1.417-2.834 3.543-2.834 5.668 0.354 9.565-7.439 17.713-17.004 17.712-3.897 0-7.794-1.063-10.982-3.542-3.188-2.48-7.794-1.771-9.919 1.417-1.417 1.771-1.771 4.605-1.063 6.731 3.188 9.211-1.417 19.13-10.627 22.317-3.897 1.417-7.794 1.417-11.691 0-3.897-1.417-7.794 0.709-9.21 4.606-0.709 2.126-0.354 4.96 1.063 6.731 5.668 7.794 4.251 18.775-3.543 24.443-3.188 2.48-7.085 3.543-10.982 3.543-3.897 0-7.085 3.188-7.085 7.439 0 2.126 1.063 4.605 2.834 5.668 7.794 5.668 9.919 16.296 4.251 24.443-2.126 3.188-5.314 5.668-9.21 6.731-3.897 1.063-6.022 5.314-4.606 8.856 0.709 2.126 2.48 3.897 4.606 4.606 9.211 2.834 14.524 12.753 11.69 21.963-1.063 3.543-3.543 7.085-6.731 9.211-3.188 2.48-3.897 6.731-1.417 10.273 1.417 1.771 3.543 2.834 5.668 2.834 9.565-0.354 17.713 7.439 17.713 17.004 0 3.897-1.063 7.794-3.543 10.982-2.48 3.188-1.771 7.794 1.417 9.919 1.771 1.417 4.605 1.771 6.731 1.063 9.211-3.188 19.13 1.417 22.318 10.628 1.417 3.897 1.417 7.794 0 11.69-1.417 3.897 0.709 7.794 4.605 9.211 2.126 0.709 4.96 0.354 6.731-1.063 7.794-5.668 18.775-4.251 24.444 3.542 2.48 3.188 3.543 7.085 3.542 10.982 0 3.897 3.188 7.085 7.085 7.44 2.48 0 4.605-1.063 6.023-3.189 3.543-4.605 8.856-7.439 14.524-7.439z" fill="#ff4136" fill-rule="nonzero" stroke="none" stroke-width="1" stroke-linecap="butt" stroke-linejoin="miter" stroke-miterlimit="10" stroke-dasharray="" stroke-dashoffset="0" font-family="none" font-weight="none" font-size="none" text-anchor="none" style="mix-blend-mode: normal" data-fill-palette-color="tertiary"></path></g><g transform="matrix(1,0,0,1,70,90)"><svg viewBox="0 0 180 180" height="180" width="180"><g><svg viewBox="0 0 180 180" height="180" width="180"><g><svg viewBox="0 0 180 180" height="180" width="180"><g id="textblocktransform"><svg viewBox="0 0 180 180" height="180" width="180" id="textblock"><g><svg viewBox="0 0 180 180" height="180" width="180"><g transform="matrix(1,0,0,1,58.18019484660536,58.18054820185926)"><svg viewBox="0 0 63.63961030678928 63.63890359628148" height="63.63890359628148" width="63.63961030678928"><g><svg xmlns="http://www.w3.org/2000/svg" xmlns:xlink="http://www.w3.org/1999/xlink" version="1.1" x="0" y="0" viewBox="4.9670000076293945 5 90.0009994506836 90" enable-background="new 0 0 100 100" xml:space="preserve" height="63.63890359628148" width="63.63961030678928" class="icon-o-0" data-fill-palette-color="accent" id="o-0"><g fill="#ff4136" data-fill-palette-color="accent"><polygon points="81.588,69.219 76.042,77.733 49.901,5 30.566,58.797 24.486,43.546 4.967,95 17.555,95 45,95 64.794,95 82.249,95    94.968,95  " fill="#ff4136" data-fill-palette-color="accent"></polygon></g></svg></g></svg></g><g><path d="M11.507 69l-9.676-3.715 1.311-3.413 9.273 3.562c0.76 0.292 1.476 0.449 2.147 0.47 0.673 0.015 1.292-0.105 1.855-0.36 0.569-0.253 1.077-0.645 1.523-1.174 0.446-0.529 0.825-1.199 1.137-2.01v0c0.309-0.804 0.474-1.552 0.497-2.244 0.025-0.698-0.089-1.332-0.343-1.901-0.247-0.567-0.626-1.07-1.137-1.51-0.513-0.433-1.15-0.796-1.91-1.087v0l-9.273-3.561 1.31-3.412 9.676 3.715c1.109 0.426 2.044 0.999 2.804 1.721 0.76 0.721 1.328 1.561 1.703 2.52 0.369 0.957 0.534 2.018 0.494 3.183-0.046 1.162-0.323 2.404-0.83 3.725v0c-0.507 1.321-1.133 2.429-1.877 3.323-0.75 0.892-1.584 1.573-2.501 2.043-0.921 0.462-1.904 0.703-2.948 0.724-1.047 0.027-2.126-0.173-3.235-0.599z" fill="#ff4136" data-fill-palette-color="primary"></path><path d="M40.966 36.231l-10.504-14.648 2.97-2.13 9.15 1.522 1.494-9.155 2.97-2.13 10.504 14.648-2.97 2.13-7.551-10.53-1.646 8.943-8.998-1.31 7.551 10.53z" fill="#ff4136" data-fill-palette-color="primary"></path><path d="M79.569 18.068l8.399-18.055 3.875-0.013 8.785 17.994-3.836 0.014-1.452-3.029-10.535 0.036-1.381 3.039zM86.197 12.006l7.69-0.027-3.933-8.177z" fill="#ff4136" data-fill-palette-color="primary"></path><path d="M122.676 25.127l9.364-15.401 3.123 1.899 6.547 10.859 3.054-5.022 3.123 1.899-9.364 15.401-3.123-1.899 4.297-7.067-6.562-10.834-7.336 12.064z" fill="#ff4136" data-fill-palette-color="primary"></path><path d="M162.033 49.646v0c1.158-0.517 2.338-0.781 3.54-0.791 1.199-0.016 2.357 0.227 3.474 0.73 1.117 0.503 2.164 1.267 3.14 2.293 0.971 1.029 1.808 2.329 2.511 3.902v0c0.253 0.567 0.477 1.15 0.672 1.75 0.195 0.6 0.355 1.205 0.481 1.814 0.122 0.618 0.205 1.236 0.246 1.854 0.048 0.615 0.044 1.22-0.012 1.814v0l-3.218-0.405c0.043-0.363 0.049-0.757 0.02-1.182-0.023-0.428-0.082-0.87-0.175-1.326-0.09-0.464-0.21-0.93-0.361-1.396-0.15-0.467-0.326-0.926-0.527-1.377v0c-0.463-1.036-1.008-1.904-1.635-2.604-0.627-0.7-1.303-1.224-2.029-1.572-0.726-0.348-1.483-0.522-2.272-0.521-0.792-0.005-1.581 0.169-2.367 0.52v0c-0.817 0.365-1.497 0.855-2.041 1.471-0.538 0.613-0.927 1.313-1.168 2.101-0.234 0.785-0.311 1.645-0.229 2.581 0.085 0.927 0.351 1.891 0.797 2.89v0c0.354 0.792 0.766 1.478 1.237 2.058 0.471 0.579 0.981 1.042 1.531 1.389 0.556 0.344 1.133 0.565 1.733 0.663 0.608 0.101 1.224 0.071 1.846-0.09v0l-2.568-5.751 2.752-1.229 3.908 8.75-0.01 0.004 0.014 0.005c-0.762 0.552-1.558 0.973-2.386 1.263-0.828 0.29-1.66 0.442-2.495 0.456-0.838 0.023-1.669-0.095-2.494-0.356-0.823-0.254-1.606-0.65-2.351-1.187-0.748-0.529-1.446-1.2-2.095-2.014-0.643-0.817-1.209-1.774-1.699-2.872v0c-0.683-1.53-1.069-2.999-1.157-4.407-0.097-1.412 0.057-2.712 0.461-3.902 0.405-1.19 1.029-2.24 1.873-3.151 0.847-0.919 1.865-1.644 3.053-2.175z" fill="#ff4136" data-fill-palette-color="primary"></path><path d="M13.111 114.712l9.792-3.775 1.332 3.457-9.38 3.617c-0.766 0.295-1.409 0.661-1.928 1.097-0.523 0.445-0.909 0.955-1.159 1.531-0.25 0.576-0.365 1.214-0.345 1.915 0.026 0.698 0.197 1.459 0.514 2.28v0c0.315 0.816 0.697 1.491 1.146 2.027 0.458 0.539 0.973 0.938 1.546 1.196 0.572 0.259 1.201 0.378 1.887 0.357 0.68-0.019 1.403-0.176 2.168-0.471v0l9.381-3.617 1.329 3.447-9.791 3.776c-1.115 0.43-2.202 0.635-3.263 0.614-1.062-0.027-2.058-0.272-2.988-0.737-0.933-0.47-1.777-1.157-2.533-2.06-0.756-0.903-1.392-2.025-1.909-3.364v0c-0.514-1.333-0.795-2.591-0.844-3.775-0.046-1.177 0.12-2.25 0.498-3.218 0.375-0.975 0.949-1.825 1.721-2.552 0.769-0.733 1.711-1.314 2.826-1.745z" fill="#ff4136" data-fill-palette-color="primary"></path><path d="M32.942 159.169l10.626-14.831 3.004 2.152 1.524 9.272 9.261-1.544 3.004 2.152-10.626 14.831-3.004-2.152 7.64-10.664-9.104 1.325-1.681-9.052-7.641 10.663z" fill="#ff4136" data-fill-palette-color="primary"></path><path d="M79.39 179.925l8.636-18.215 3.925 0.014 8.758 18.276-3.885-0.014-1.451-3.079-10.655-0.037-1.423 3.069zM86.141 173.831l7.78 0.027-3.916-8.295z" fill="#ff4136" data-fill-palette-color="primary"></path><path d="M129.612 170.974l-9.458-15.602 3.168-1.921 12.808-0.796-3.088-5.096 3.168-1.92 9.458 15.602-3.168 1.921-4.34-7.159-12.787 0.831 7.407 12.22z" fill="#ff4136" data-fill-palette-color="primary"></path><path d="M157.537 132.94v0c-1.169-0.525-2.167-1.237-2.993-2.134-0.817-0.901-1.412-1.94-1.784-3.117-0.375-1.186-0.503-2.491-0.383-3.915 0.123-1.43 0.541-2.94 1.255-4.53v0c0.257-0.572 0.546-1.134 0.867-1.686 0.321-0.551 0.672-1.081 1.054-1.59 0.379-0.503 0.787-0.979 1.223-1.427 0.436-0.448 0.897-0.856 1.383-1.223v0l1.86 2.702c-0.302 0.216-0.606 0.478-0.913 0.786-0.304 0.303-0.598 0.646-0.88 1.032-0.286 0.376-0.555 0.779-0.806 1.208-0.251 0.429-0.479 0.872-0.684 1.328v0c-0.47 1.047-0.761 2.044-0.871 2.99-0.101 0.942-0.038 1.805 0.189 2.587 0.221 0.78 0.599 1.469 1.135 2.069 0.536 0.599 1.2 1.077 1.991 1.432v0c0.822 0.369 1.647 0.553 2.475 0.551 0.828-0.002 1.621-0.18 2.38-0.534 0.756-0.348 1.458-0.867 2.105-1.557 0.647-0.69 1.197-1.541 1.65-2.552v0c0.361-0.804 0.599-1.579 0.715-2.325 0.118-0.752 0.123-1.448 0.016-2.089-0.111-0.65-0.334-1.237-0.669-1.761-0.329-0.521-0.766-0.966-1.311-1.335v0l-2.613 5.819-2.777-1.247 3.975-8.852 0.009 0.004-0.005-0.013c0.932 0.206 1.785 0.523 2.559 0.952 0.774 0.428 1.45 0.951 2.028 1.569 0.576 0.624 1.045 1.333 1.406 2.124 0.362 0.792 0.593 1.653 0.695 2.584 0.098 0.922 0.058 1.9-0.12 2.932-0.181 1.038-0.52 2.112-1.018 3.221v0c-0.695 1.547-1.542 2.831-2.542 3.853-1.006 1.019-2.094 1.778-3.263 2.278-1.175 0.497-2.39 0.734-3.645 0.712-1.262-0.025-2.493-0.307-3.693-0.846z" fill="#ff4136" data-fill-palette-color="primary"></path><path d="M2.003 92.154c0-3.849 3.12-6.97 6.969-6.97 3.849 0 6.97 3.12 6.97 6.97 0 3.849-3.12 6.97-6.97 6.97-3.849 0-6.97-3.12-6.969-6.97z" fill="#ff4136" data-fill-palette-color="primary"></path><path d="M164.229 92.154c0-3.849 3.12-6.97 6.97-6.97 3.849 0 6.97 3.12 6.97 6.97 0 3.849-3.12 6.97-6.97 6.97-3.849 0-6.97-3.12-6.97-6.97z" fill="#ff4136" data-fill-palette-color="primary"></path></g></svg></g></svg></g></svg></g><g></g></svg></g></svg></g></svg></g><defs></defs></svg><rect width="320" height="360" fill="none" stroke="none" visibility="hidden"></rect></g></svg></g></svg>